#!OML:ASF H:\BabyWalks\Project 1\Capture day 1\Session 1\baby.ASF
:FULLY-SPECIFIED
:DEGREES
486
root 3.515 17.3937 -1.60284 -55.9604 76.7828 -44.3194
lowerback 8.0315 1.36732 -6.88513
upperback 4.12028 1.46816 -2.12582
thorax -0.325392 0.723716 1.53949
lowerneck 1.02089 1.98764 6.55594
upperneck 8.15423 2.39288 6.80127
head 2.40513 1.66946 1.10627
rclavicle -1.32937e-015 -6.67916e-014
rhumerus -47.3488 3.79954 -80.948
rradius 44.9194
rwrist 8.1569
rhand 4.73983 -17.4949
rfingers 7.12502
rthumb 30.1218 -45.0601
lclavicle -1.32937e-015 -6.67916e-014
lhumerus -52.4306 -3.53206 71.9804
lradius 63.463
lwrist 3.36668
lhand -5.92127 5.80425
lfingers 7.12502
lthumb 19.908 34.8046
rfemur 7.72932 9.89313 29.8653
rtibia 19.7034
rfoot -15.2232 11.7484
rtoes -5.31797
lfemur 9.86274 -6.91753 -8.53936
ltibia 30.2011
lfoot -32.8388 -3.95947
ltoes -7.70466
487
root 3.4963 17.4007 -1.61751 -56.2149 76.7825 -44.7541
lowerback 8.22135 1.4053 -6.72625
upperback 4.18848 1.52014 -2.13331
thorax -0.360013 0.753233 1.4354
lowerneck 1.01433 1.92599 6.59285
upperneck 7.88089 2.32918 6.66003
head 2.31691 1.61909 1.04822
rclavicle -6.28657e-015 6.36111e-015
rhumerus -47.2779 4.0007 -81.162
rradius 45.108
rwrist 8.12538
rhand 4.56584 -17.5196
rfingers 7.12502
rthumb 29.9558 -45.1148
lclavicle -6.28657e-015 6.36111e-015
lhumerus -52.4736 -3.46339 72.0628
lradius 62.877
lwrist 3.1272
lhand -5.77948 5.7836
lfingers 7.12502
lthumb 20.0443 34.7697
rfemur 7.5456 9.96909 29.8631
rtibia 19.5273
rfoot -15.0338 11.6927
rtoes -5.28294
lfemur 9.50333 -6.85755 -8.44113
ltibia 30.3263
lfoot -32.7998 -4.09829
ltoes -7.49527
488
root 3.47742 17.4079 -1.63228 -56.5129 76.7784 -45.2387
lowerback 8.41836 1.44227 -6.54344
upperback 4.26427 1.57318 -2.13339
thorax -0.390109 0.78339 1.32527
lowerneck 1.00106 1.8623 6.62773
upperneck 7.6046 2.26198 6.51616
head 2.22921 1.56696 0.990141
rclavicle 2.03257e-014 7.31528e-014
rhumerus -47.1994 4.24227 -81.3857
rradius 45.328
rwrist 8.05495
rhand 4.30889 -17.5263
rfingers 7.12502
rthumb 29.7106 -45.1656
lclavicle 2.03257e-014 7.31528e-014
lhumerus -52.5188 -3.37792 72.1245
lradius 62.2761
lwrist 2.8755
lhand -5.65223 5.70587
lfingers 7.12502
lthumb 20.1666 34.6791
rfemur 7.36546 10.0375 29.8671
rtibia 19.3295
rfoot -14.8338 11.6404
rtoes -5.25061
lfemur 9.13045 -6.79546 -8.33016
ltibia 30.4609
lfoot -32.7529 -4.24069
ltoes -7.25268
489
root 3.4585 17.4152 -1.64715 -56.8416 76.7727 -45.7593
lowerback 8.6204 1.47748 -6.34242
upperback 4.34775 1.6262 -2.1251
thorax -0.414406 0.813579 1.21338
lowerneck 0.977872 1.79833 6.65559
upperneck 7.3323 2.19272 6.37375
head 2.14475 1.5142 0.934348
rclavicle -5.81445e-015 1.59028e-014
rhumerus -47.1116 4.52868 -81.617
rradius 45.5765
rwrist 7.95575
rhand 3.97378 -17.5069
rfingers 7.12502
rthumb 29.3907 -45.2028
lclavicle -5.81445e-015 1.59028e-014
lhumerus -52.5698 -3.2757 72.1682
lradius 61.67
lwrist 2.61345
lhand -5.54631 5.58355
lfingers 7.12502
lthumb 20.2684 34.546
rfemur 7.18998 10.1004 29.8741
rtibia 19.1136
rfoot -14.6289 11.5893
rtoes -5.22547
lfemur 8.74756 -6.73099 -8.21095
ltibia 30.6024
lfoot -32.7071 -4.38221
ltoes -7.0133
490
root 3.43952 17.4225 -1.6621 -57.1972 76.7646 -46.315
lowerback 8.82785 1.51036 -6.12032
upperback 4.43504 1.67842 -2.10988
thorax -0.436967 0.843616 1.09665
lowerneck 0.947856 1.73358 6.67806
upperneck 7.06543 2.12096 6.23514
head 2.06344 1.46075 0.881246
rclavicle 2.09718e-014 -3.81667e-014
rhumerus -47.0141 4.85614 -81.8543
rradius 45.8514
rwrist 7.83718
rhand 3.5813 -17.4735
rfingers 7.12502
rthumb 29.0159 -45.2345
lclavicle 2.09718e-014 -3.81667e-014
lhumerus -52.6361 -3.16242 72.1939
lradius 61.0761
lwrist 2.33544
lhand -5.45704 5.42938
lfingers 7.12502
lthumb 20.3542 34.3827
rfemur 7.01384 10.154 29.8831
rtibia 18.8843
rfoot -14.4201 11.5429
rtoes -5.21106
lfemur 8.35321 -6.66349 -8.08283
ltibia 30.748
lfoot -32.6674 -4.52454
ltoes -6.79654
491
root 3.42066 17.43 -1.67718 -57.5487 76.7628 -46.8749
lowerback 9.03855 1.54082 -5.88743
upperback 4.52448 1.72916 -2.09059
thorax -0.458347 0.873122 0.977918
lowerneck 0.907791 1.66963 6.69035
upperneck 6.80744 2.04821 6.10397
head 1.98686 1.40757 0.83285
rclavicle -2.9122e-014 5.08889e-014
rhumerus -46.9092 5.22349 -82.0946
rradius 46.153
rwrist 7.71547
rhand 3.14726 -17.4155
rfingers 7.12502
rthumb 28.6013 -45.2471
lclavicle -2.9122e-014 5.08889e-014
lhumerus -52.7225 -3.0457 72.206
lradius 60.503
lwrist 2.05258
lhand -5.40002 5.24162
lfingers 7.12502
lthumb 20.409 34.1891
rfemur 6.83381 10.1993 29.8818
rtibia 18.6487
rfoot -14.2154 11.5003
rtoes -5.20936
lfemur 7.94975 -6.5933 -7.95984
ltibia 30.8928
lfoot -32.6361 -4.66607
ltoes -6.61942
